<svg width="48" height="48" viewBox="0 0 48 48" fill="none" xmlns="http://www.w3.org/2000/svg">
<g filter="url(#filter0_d_16_316)">
<circle cx="24" cy="20" r="20" fill="#EDFFFC"/>
<path d="M35 11.0101C34.0424 11.6855 32.9821 12.2022 31.86 12.5401C31.2577 11.8476 30.4573 11.3567 29.567 11.134C28.6767 10.9112 27.7395 10.9673 26.8821 11.2945C26.0247 11.6218 25.2884 12.2045 24.773 12.9638C24.2575 13.7231 23.9877 14.6224 24 15.5401V16.5401C22.2426 16.5856 20.5013 16.1959 18.931 15.4055C17.3607 14.6151 16.0103 13.4487 15 12.0101C15 12.0101 11 21.0101 20 25.0101C17.9405 26.408 15.4872 27.109 13 27.0101C22 32.0101 33 27.0101 33 15.5101C32.9991 15.2315 32.9723 14.9537 32.92 14.6801C33.9406 13.6735 34.6608 12.4028 35 11.0101V11.0101Z" stroke="#02897A" stroke-width="2" stroke-linecap="round" stroke-linejoin="round"/>
</g>
<defs>
<filter id="filter0_d_16_316" x="0" y="0" width="48" height="48" filterUnits="userSpaceOnUse" color-interpolation-filters="sRGB">
<feFlood flood-opacity="0" result="BackgroundImageFix"/>
<feColorMatrix in="SourceAlpha" type="matrix" values="0 0 0 0 0 0 0 0 0 0 0 0 0 0 0 0 0 0 127 0" result="hardAlpha"/>
<feOffset dy="4"/>
<feGaussianBlur stdDeviation="2"/>
<feComposite in2="hardAlpha" operator="out"/>
<feColorMatrix type="matrix" values="0 0 0 0 0 0 0 0 0 0 0 0 0 0 0 0 0 0 0.25 0"/>
<feBlend mode="normal" in2="BackgroundImageFix" result="effect1_dropShadow_16_316"/>
<feBlend mode="normal" in="SourceGraphic" in2="effect1_dropShadow_16_316" result="shape"/>
</filter>
</defs>
</svg>
